<svg xmlns="http://www.w3.org/2000/svg" xml:space="preserve" width="457.56" height="120.947" viewBox="0 0 457.56 120.947"><path d="m 2726.93,412.031 h 20.53 c 19.61,0 30.18,-9.961 30.18,-29.875 0,-23.23 -11.78,-32.285 -32.6,-32.285 h -18.11 z m -43.44,-183.465 h 43.44 v 91.129 h 23.24 c 17.5,0 25.04,-10.261 25.66,-27.156 l 1.2,-41.348 c 0.29,-8.437 1.2,-16.582 5.43,-22.625 h 47.07 v 1.805 c -8.14,4.238 -9.35,15.996 -9.66,38.621 -0.59,45.571 -5.12,61.875 -34.69,65.793 v 0.598 c 24.44,5.137 35.9,24.441 35.9,53.113 0,36.817 -21.72,55.527 -57.33,55.527 h -80.26 V 228.566" style="fill:#88b5e4;fill-opacity:1;fill-rule:nonzero;stroke:none" transform="matrix(.13333 0 0 -.13333 0 120.947)"/><path d="M 2042.85,444.02 V 293.75 c 0,-57.637 33.5,-69.414 68.8,-69.414 35.3,0 68.81,14.484 68.81,69.414 V 444.02 H 2137 V 293.75 c 0,-21.426 -5.12,-37.422 -25.35,-37.422 -20.21,0 -25.34,15.996 -25.34,37.422 v 150.27 h -43.46" style="fill:#88b5e4;fill-opacity:1;fill-rule:nonzero;stroke:none" transform="matrix(.13333 0 0 -.13333 0 120.947)"/><path d="M 2191.09,444.02 V 228.574 h 39.83 v 150.871 h 0.6 l 53.11,-150.871 h 49.49 V 444.02 h -39.83 V 296.465 h -0.6 l -52.51,147.555 h -50.09" style="fill:#88b5e4;fill-opacity:1;fill-rule:nonzero;stroke:none" transform="matrix(.13333 0 0 -.13333 0 120.947)"/><path d="m 2388.74,444.02 h -43.45 V 228.574 h 43.45 V 444.02" style="fill:#88b5e4;fill-opacity:1;fill-rule:nonzero;stroke:none" transform="matrix(.13333 0 0 -.13333 0 120.947)"/><path d="m 2391.73,444.02 49.48,-215.446 h 55.83 l 49.47,215.446 h -44.95 l -31.98,-159.332 h -0.9 l -30.49,159.332 h -46.46" style="fill:#88b5e4;fill-opacity:1;fill-rule:nonzero;stroke:none" transform="matrix(.13333 0 0 -.13333 0 120.947)"/><path d="M 2550.39,444.02 V 228.574 h 123.42 v 35.598 h -79.96 v 57.937 h 72.42 v 35.618 h -72.42 v 50.679 h 76.94 v 35.614 h -120.4" style="fill:#88b5e4;fill-opacity:1;fill-rule:nonzero;stroke:none" transform="matrix(.13333 0 0 -.13333 0 120.947)"/><path d="m 2824.69,295.859 v -8.75 c 0,-39.843 19.31,-62.773 68.5,-62.773 47.07,0 74.83,20.519 74.83,66.094 0,26.25 -8.45,42.843 -41.04,57.031 l -33.49,14.473 c -18.41,7.851 -22.33,15.996 -22.33,29.277 0,12.668 5.13,25.051 24.74,25.051 16.59,0 23.54,-11.77 23.54,-31.992 h 41.64 v 6.043 c 0,41.339 -28.07,57.925 -66.69,57.925 -41.04,0 -66.68,-21.422 -66.68,-63.355 0,-35.918 17.8,-51.914 56.42,-65.188 28.67,-9.961 38.63,-17.195 38.63,-36.812 0,-18.106 -12.68,-26.555 -25.95,-26.555 -22.94,0 -28.67,12.969 -28.67,33.195 v 6.336 h -43.45" style="fill:#88b5e4;fill-opacity:1;fill-rule:nonzero;stroke:none" transform="matrix(.13333 0 0 -.13333 0 120.947)"/><path d="M 3017.16,444.02 H 2973.7 V 228.574 h 43.46 V 444.02" style="fill:#88b5e4;fill-opacity:1;fill-rule:nonzero;stroke:none" transform="matrix(.13333 0 0 -.13333 0 120.947)"/><path d="m 3242.85,444.02 -30.18,-83.278 h -0.6 l -28.36,83.278 h -160.86 v -35.614 h 47.07 V 228.574 h 43.46 v 179.832 h 36.65 l 40.6,-95.047 v -84.785 h 43.47 v 84.785 l 55.83,130.661 h -47.08" style="fill:#88b5e4;fill-opacity:1;fill-rule:nonzero;stroke:none" transform="matrix(.13333 0 0 -.13333 0 120.947)"/><path d="m 1661.14,463.617 h -72 v 216.406 h 118.07 c 32.02,0.012 59.64,-20.714 68.64,-48.199 8.34,-25.457 1.21,-53.117 -17.61,-72.808 2.5,-6.782 4.94,-12.09 7.26,-18.18 5.23,-12.051 10.01,-24.098 15.24,-36.004 l 17.13,-41.215 h -0.44 -72.57 c 0,-0.043 -0.58,1.738 -1.16,2.465 -2.9,6.383 -5.52,13.215 -8.42,19.594 l -17.56,41.66 c -6.97,16.84 -13.94,32.754 -20.89,49.578 8.68,0.242 15.18,-1.387 23.57,2.473 5.9,2.898 14.84,10.109 15.07,23.937 -0.23,6.852 -2.13,12.043 -6.66,17.442 -4.55,5.019 -11.12,8.742 -19.7,8.859 0,0 -27.98,0.008 -27.97,0 V 463.617" style="fill:#2f56ae;fill-opacity:1;fill-rule:nonzero;stroke:none" transform="matrix(.13333 0 0 -.13333 0 120.947)"/><path d="m 2413.19,680.027 v -216.41 h -71.99 v 88.242 h -6.73 -43.09 -0.59 v -88.242 c -13.07,0 -27.15,0.145 -40.2,0 h -31.8 v 166.332 h -50.36 v -5.222 -15.668 -71.27 -74.172 h -0.58 -71.42 v 89.703 3.477 73.152 h -50.8 V 551.43 463.617 h -74.17 c -12.92,31.203 -26.55,62.703 -39.18,93.762 -1.45,6.531 -2.9,13.07 -4.79,19.453 V 463.617 h -74.33 c -14.72,34.254 -28.87,67.824 -43.56,102.582 -5.09,12.039 -9.26,21.836 -14.52,34.36 l -0.72,1.636 -11.44,26.852 -16.39,38.351 c -1.43,4.348 -3.76,8.282 -5.21,12.629 h 74.15 c 15.23,-37.007 30.61,-73.586 46.59,-110.015 l 0.44,-0.871 c -0.59,4.211 -1.9,9.582 -2.63,13.636 v 64.59 c 0.15,10.313 0,22.071 0,32.66 h 74.32 c 0.94,-2.355 1.45,-3.629 2.18,-5.519 8.71,-20.461 16.99,-40.778 25.7,-61.102 l 19.44,-44.265 c -0.44,4.648 -1.45,9.14 -2.04,13.636 v 97.25 h 5.96 50.52 182.88 51.96 v -13.5 -64.589 h 3.49 46.92 v 78.089 h 37.55 34.44" style="fill:#2f56ae;fill-opacity:1;fill-rule:nonzero;stroke:none" transform="matrix(.13333 0 0 -.13333 0 120.947)"/><path d="m 2670.24,680.051 h -53.96 l -45.16,-170.594 -45.15,170.594 H 2472 l -57.28,-216.434 h 45.47 l 10,45.774 h 57.6 l 9.99,-45.774 h 66.68 l 10,45.774 h 57.6 l 10,-45.774 h 45.47 z m -192.47,-134.891 20.91,97.301 h 0.61 l 20.92,-97.301 z m 144.27,0 20.93,97.301 h 0.59 l 20.92,-97.301 h -42.44" style="fill:#88b5e4;fill-opacity:1;fill-rule:nonzero;stroke:none" transform="matrix(.13333 0 0 -.13333 0 120.947)"/><path d="m 2857.53,606.199 c 0,31.379 -4.52,76.949 -66.69,76.949 -65.17,0 -73.33,-46.468 -73.33,-111.949 0,-65.48 8.16,-111.953 73.33,-111.953 57.03,0 68.5,40.133 68.5,86.606 h -43.45 c 0,-46.473 -11.47,-54.622 -27.16,-54.622 -18.71,0 -27.76,11.766 -27.76,76.95 0,60.953 5.13,82.98 27.16,82.98 19.61,0 25.95,-13.582 25.95,-44.961 h 43.45" style="fill:#88b5e4;fill-opacity:1;fill-rule:nonzero;stroke:none" transform="matrix(.13333 0 0 -.13333 0 120.947)"/><path d="m 2867.92,463.617 h 43.64 v 96.078 h 50.92 v -96.078 h 43.65 v 216.406 h -43.65 v -82.746 h -50.92 v 82.746 h -43.64 V 463.617" style="fill:#88b5e4;fill-opacity:1;fill-rule:nonzero;stroke:none" transform="matrix(.13333 0 0 -.13333 0 120.947)"/><path d="M 3015.6,680.07 V 463.617 h 123.99 v 35.77 h -80.33 v 58.211 h 72.75 v 35.769 h -72.75 v 50.93 h 77.29 V 680.07 H 3015.6" style="fill:#88b5e4;fill-opacity:1;fill-rule:nonzero;stroke:none" transform="matrix(.13333 0 0 -.13333 0 120.947)"/><path d="M 3146.07,680.023 V 463.617 h 40.01 v 151.547 h 0.6 l 53.35,-151.547 h 49.71 v 216.406 h -40.01 V 531.816 h -0.61 l -52.74,148.207 h -50.31" style="fill:#88b5e4;fill-opacity:1;fill-rule:nonzero;stroke:none" transform="matrix(.13333 0 0 -.13333 0 120.947)"/><path d="m 1442.4,226.77 h 10 v 453.55 h -10 V 226.77" style="fill:#2f56ae;fill-opacity:1;fill-rule:nonzero;stroke:none" transform="matrix(.13333 0 0 -.13333 0 120.947)"/><path d="M 681.941,298.176 H 667.543 V 226.77 h 14.398 z m 10.594,-71.406 h 13.797 v 35.703 c 0,5.925 2.441,8.894 7.301,8.894 2.07,0 3.57,-0.547 4.512,-1.648 0.925,-1.098 1.402,-3.047 1.402,-5.852 V 226.77 h 13.789 v 39.902 c 0,5.398 -1.184,9.297 -3.551,11.695 -2.363,2.406 -5.742,3.606 -10.152,3.606 -2.996,0 -5.656,-0.625 -7.996,-1.856 -2.328,-1.23 -4.235,-3.172 -5.696,-5.847 h -0.211 v 6.296 h -13.195 z m 48.473,17.593 v -1.89 c 0,-2.602 0.285,-4.953 0.887,-7.051 0.601,-2.102 1.652,-3.899 3.148,-5.402 1.5,-1.504 3.52,-2.649 6.051,-3.45 2.539,-0.797 5.769,-1.199 9.703,-1.199 2.863,0 5.535,0.352 7.996,1.047 2.473,0.699 4.59,1.758 6.352,3.152 1.769,1.399 3.152,3.172 4.164,5.301 0.984,2.133 1.488,4.602 1.488,7.395 0,4.074 -0.902,7.285 -2.699,9.66 -1.805,2.359 -4.868,4.273 -9.203,5.742 l -8.297,2.801 c -2.332,0.73 -3.914,1.633 -4.743,2.707 -0.839,1.062 -1.25,2.265 -1.25,3.594 0,1.929 0.637,3.378 1.938,4.351 1.301,0.969 2.82,1.449 4.551,1.449 2.269,0 3.851,-0.644 4.761,-1.957 0.887,-1.297 1.336,-3.347 1.336,-6.14 h 12.414 v 2.199 c 0,4.871 -1.507,8.633 -4.511,11.297 -2.989,2.676 -7.629,4.004 -13.899,4.004 -3.527,0 -6.55,-0.43 -9.05,-1.297 -2.5,-0.871 -4.551,-2.031 -6.137,-3.508 -1.613,-1.465 -2.778,-3.176 -3.512,-5.145 -0.734,-1.972 -1.101,-4.054 -1.101,-6.25 0,-3.8 0.968,-6.925 2.914,-9.355 1.925,-2.426 4.785,-4.316 8.586,-5.645 l 9.699,-3.507 c 1.344,-0.528 2.5,-1.25 3.5,-2.149 1.011,-0.898 1.5,-2.215 1.5,-3.945 0,-2.129 -0.629,-3.731 -1.903,-4.805 -1.257,-1.062 -2.957,-1.601 -5.093,-1.601 -2.332,0 -4.114,0.722 -5.356,2.16 -1.226,1.426 -1.847,3.316 -1.847,5.644 v 1.793 z m 51.027,36.203 h -7 v -9.394 h 7 v -30.801 c 0,-2.734 0.168,-5 0.5,-6.797 0.34,-1.804 0.949,-3.254 1.852,-4.355 0.894,-1.106 2.183,-1.875 3.843,-2.356 1.672,-0.457 3.875,-0.691 6.606,-0.691 1.602,0 3.117,0.066 4.551,0.195 1.437,0.149 2.918,0.274 4.445,0.403 v 9.597 c -0.457,-0.066 -0.957,-0.117 -1.496,-0.144 -0.527,-0.032 -1.063,-0.051 -1.606,-0.051 -1.996,0 -3.308,0.449 -3.949,1.348 -0.629,0.898 -0.945,2.421 -0.945,4.55 v 29.102 h 7.996 v 9.394 h -7.996 v 15.403 h -13.801 z m 28.399,6.602 h 13.8 v 11.809 h -13.8 z m 0,-60.398 h 13.8 v 53.796 h -13.8 z m 27.222,53.796 h -7.004 v -9.394 h 7.004 v -30.801 c 0,-2.734 0.164,-5 0.496,-6.797 0.332,-1.804 0.953,-3.254 1.852,-4.355 0.898,-1.106 2.18,-1.875 3.848,-2.356 1.671,-0.457 3.875,-0.691 6.601,-0.691 1.602,0 3.121,0.066 4.551,0.195 1.434,0.149 2.922,0.274 4.449,0.403 v 9.597 c -0.469,-0.066 -0.969,-0.117 -1.5,-0.144 -0.531,-0.032 -1.066,-0.051 -1.601,-0.051 -1.997,0 -3.321,0.449 -3.95,1.348 -0.629,0.898 -0.949,2.421 -0.949,4.55 v 29.102 h 8 v 9.394 h -8 v 15.403 h -13.797 z m 55.309,-53.796 h 13.195 v 53.796 h -13.797 v -35.695 c 0,-5.933 -2.425,-8.902 -7.3,-8.902 -2.071,0 -3.571,0.554 -4.497,1.648 -0.933,1.106 -1.402,3.059 -1.402,5.852 v 37.097 h -13.797 v -39.89 c 0,-5.403 1.176,-9.309 3.551,-11.699 2.367,-2.407 5.746,-3.606 10.145,-3.606 3.003,0 5.671,0.613 8.003,1.848 2.329,1.226 4.227,3.183 5.7,5.847 h 0.199 z m 26.359,53.796 h -7 v -9.394 h 7 v -30.801 c 0,-2.734 0.168,-5 0.5,-6.797 0.332,-1.804 0.953,-3.254 1.852,-4.355 0.898,-1.106 2.176,-1.875 3.847,-2.356 1.668,-0.457 3.872,-0.691 6.602,-0.691 1.602,0 3.117,0.066 4.551,0.195 1.429,0.149 2.918,0.274 4.445,0.403 v 9.597 c -0.469,-0.066 -0.965,-0.117 -1.496,-0.144 -0.531,-0.032 -1.07,-0.051 -1.602,-0.051 -2,0 -3.32,0.449 -3.953,1.348 -0.629,0.898 -0.945,2.421 -0.945,4.55 v 29.102 h 7.996 v 9.394 h -7.996 v 15.403 h -13.801 v -15.403" style="fill:#2f56ae;fill-opacity:1;fill-rule:nonzero;stroke:none" transform="matrix(.13333 0 0 -.13333 0 120.947)"/><path d="m 712.34,390.359 c 0,7.27 -1.731,12.844 -5.199,16.75 -3.473,3.899 -9.133,5.848 -17,5.848 -4.606,0 -8.43,-0.769 -11.504,-2.305 -3.067,-1.519 -5.528,-3.816 -7.399,-6.843 -1.867,-3.028 -3.175,-6.817 -3.949,-11.348 -0.769,-4.531 -1.152,-9.805 -1.152,-15.801 0,-6.199 0.273,-11.648 0.801,-16.347 0.535,-4.708 1.582,-8.653 3.152,-11.856 1.57,-3.203 3.726,-5.613 6.496,-7.246 2.773,-1.633 6.352,-2.449 10.754,-2.449 3.398,0 6.316,0.625 8.75,1.89 2.43,1.274 4.519,3.301 6.25,6.106 h 0.199 v -6.602 h 10.602 V 378.66 H 689.84 v -10.601 h 9.5 v -7.297 c 0,-1.934 -0.301,-3.621 -0.902,-5.059 -0.602,-1.426 -1.348,-2.617 -2.247,-3.547 -0.902,-0.926 -1.871,-1.629 -2.898,-2.097 -1.031,-0.469 -1.984,-0.704 -2.855,-0.704 -2.071,0 -3.75,0.657 -5.047,1.954 -1.305,1.3 -2.301,3.175 -3.004,5.593 -0.699,2.434 -1.176,5.375 -1.449,8.801 -0.27,3.438 -0.403,7.324 -0.403,11.652 0,8.934 0.774,15.333 2.301,19.208 1.535,3.867 4.035,5.792 7.5,5.792 1.477,0 2.727,-0.371 3.75,-1.144 1.031,-0.77 1.887,-1.727 2.555,-2.898 0.668,-1.172 1.148,-2.473 1.449,-3.911 0.301,-1.422 0.449,-2.769 0.449,-4.043 z m 49.93,-25.398 v 3.098 c 0,4.129 -0.274,7.879 -0.801,11.25 -0.531,3.367 -1.528,6.226 -3,8.601 -1.473,2.363 -3.481,4.199 -6.051,5.496 -2.57,1.301 -5.852,1.953 -9.852,1.953 -4.668,0 -8.394,-0.769 -11.199,-2.3 -2.797,-1.536 -4.945,-3.606 -6.449,-6.204 -1.5,-2.597 -2.5,-5.566 -3,-8.894 -0.496,-3.332 -0.75,-6.801 -0.75,-10.402 0,-3.329 0.148,-6.719 0.453,-10.149 0.297,-3.433 1.117,-6.531 2.445,-9.305 1.332,-2.761 3.407,-5.019 6.204,-6.746 2.8,-1.73 6.699,-2.597 11.699,-2.597 6.601,0 11.429,1.679 14.5,5.047 3.074,3.371 4.73,8.183 5,14.453 h -12.403 c -0.398,-3.407 -1.128,-5.938 -2.195,-7.61 -1.07,-1.668 -2.769,-2.5 -5.101,-2.5 -1.274,0 -2.332,0.356 -3.2,1.059 -0.871,0.699 -1.574,1.629 -2.101,2.801 -0.531,1.164 -0.922,2.5 -1.153,3.996 -0.226,1.504 -0.343,3.055 -0.343,4.644 v 4.309 z m -27.297,8.191 v 2.102 c 0,1.269 0.117,2.527 0.343,3.809 0.231,1.269 0.622,2.414 1.153,3.449 0.527,1.023 1.25,1.863 2.148,2.5 0.903,0.625 2.051,0.945 3.453,0.945 1.399,0 2.547,-0.281 3.45,-0.848 0.902,-0.57 1.597,-1.398 2.097,-2.5 0.504,-1.105 0.852,-2.433 1.051,-4.004 0.199,-1.566 0.332,-3.378 0.398,-5.453 z m 34.683,-18.496 c 0.672,-3.523 1.805,-6.504 3.407,-8.894 1.593,-2.403 3.769,-4.18 6.5,-5.352 2.726,-1.172 6.164,-1.719 10.296,-1.648 3.93,0 7.25,0.613 9.95,1.843 2.703,1.231 4.879,3.04 6.546,5.403 1.672,2.371 2.875,5.32 3.606,8.847 0.727,3.536 1.098,7.606 1.098,12.208 0,4.667 -0.332,8.777 -1,12.339 -0.668,3.578 -1.797,6.555 -3.399,8.957 -1.601,2.403 -3.769,4.18 -6.5,5.352 -2.726,1.172 -6.172,1.719 -10.301,1.648 -3.929,0 -7.254,-0.625 -9.953,-1.851 -2.699,-1.231 -4.879,-3.028 -6.547,-5.403 -1.671,-2.363 -2.871,-5.324 -3.597,-8.847 -0.735,-3.524 -1.106,-7.598 -1.106,-12.195 0,-4.739 0.332,-8.879 1,-12.407 m 13.004,20 c 0.129,2.336 0.449,4.328 0.949,5.996 0.5,1.672 1.231,2.981 2.204,3.911 0.964,0.925 2.316,1.394 4.046,1.394 2.801,0 4.731,-1.465 5.801,-4.394 1.07,-2.93 1.602,-7.774 1.602,-14.5 0,-6.731 -0.532,-11.575 -1.602,-14.504 -1.07,-2.93 -3,-4.407 -5.801,-4.407 -1.73,0 -3.082,0.481 -4.046,1.411 -0.973,0.925 -1.704,2.222 -2.204,3.894 -0.5,1.672 -0.82,3.672 -0.949,5.996 -0.133,2.332 -0.199,4.871 -0.199,7.61 0,2.722 0.066,5.261 0.199,7.593 m 49.352,-0.144 c 0.156,2.5 0.508,4.492 1.051,5.996 0.527,1.504 1.257,2.578 2.195,3.254 0.933,0.664 2.16,0.996 3.703,0.996 2.727,0 4.609,-1.367 5.648,-4.106 1.032,-2.722 1.547,-7.363 1.547,-13.894 0,-2.266 -0.117,-4.348 -0.343,-6.25 -0.243,-1.903 -0.641,-3.516 -1.204,-4.856 -0.57,-1.328 -1.339,-2.371 -2.3,-3.14 -0.969,-0.774 -2.192,-1.153 -3.653,-1.153 -1.468,0 -2.644,0.379 -3.551,1.153 -0.894,0.769 -1.593,1.797 -2.097,3.093 -0.496,1.297 -0.84,2.786 -0.996,4.454 -0.172,1.671 -0.254,3.425 -0.254,5.3 0,3.594 0.082,6.653 0.254,9.153 m 14.144,19.441 v -5.992 h -0.199 c -1.34,2.801 -3.035,4.727 -5.098,5.801 -2.07,1.062 -4.074,1.597 -6,1.597 -3.742,0 -6.718,-0.828 -8.953,-2.5 -2.238,-1.668 -3.937,-3.828 -5.093,-6.453 -1.172,-2.629 -1.946,-5.578 -2.301,-8.847 -0.371,-3.274 -0.551,-6.473 -0.551,-9.598 0,-9.809 1.379,-16.777 4.148,-20.949 2.758,-4.168 6.879,-6.25 12.348,-6.25 2.203,0 4.313,0.597 6.356,1.797 2.023,1.203 3.75,2.8 5.144,4.796 h 0.199 v -7.101 c 0,-2.793 -0.566,-5.117 -1.699,-6.941 -1.137,-1.836 -3.102,-2.754 -5.898,-2.754 -0.868,0 -1.688,0.125 -2.45,0.398 -0.773,0.273 -1.492,0.637 -2.148,1.106 -1.402,0.996 -2.102,2.363 -2.102,4.097 h -13.203 c 0,-4.597 1.582,-8.152 4.75,-10.652 3.16,-2.5 7.684,-3.75 13.551,-3.75 8.063,0 13.813,1.719 17.254,5.144 3.43,3.442 5.148,8.75 5.148,15.957 v 51.094 z m 23.262,-53.797 h 13.801 v 32.305 c 0,1.797 0.301,3.32 0.902,4.551 0.598,1.23 1.399,2.226 2.399,3 1,0.769 2.097,1.316 3.3,1.648 1.2,0.332 2.399,0.496 3.598,0.496 0.73,0 1.449,-0.015 2.152,-0.047 0.7,-0.031 1.407,-0.078 2.149,-0.156 v 13.203 c -0.399,0.071 -0.821,0.117 -1.25,0.157 -0.438,0.031 -0.848,0.046 -1.25,0.046 -2.871,0 -5.301,-0.781 -7.297,-2.351 -2.004,-1.57 -3.703,-3.653 -5.106,-6.25 h -0.199 v 7.195 h -13.199 z m 46.711,37.305 v 1.492 c 0,2.133 0.531,3.828 1.601,5.11 1.059,1.269 2.661,1.894 4.797,1.894 2.332,0 3.981,-0.574 4.953,-1.746 0.958,-1.176 1.45,-2.785 1.45,-4.856 0,-1.796 -0.399,-3.164 -1.2,-4.101 -0.8,-0.93 -2.242,-1.668 -4.3,-2.195 l -7.801,-2.102 c -2.402,-0.676 -4.445,-1.426 -6.152,-2.297 -1.7,-0.879 -3.098,-1.949 -4.2,-3.25 -1.097,-1.301 -1.918,-2.871 -2.449,-4.707 -0.539,-1.824 -0.797,-4.012 -0.797,-6.543 0,-1.805 0.231,-3.625 0.699,-5.449 0.458,-1.836 1.2,-3.484 2.204,-4.949 0.996,-1.477 2.328,-2.676 3.996,-3.606 1.66,-0.926 3.699,-1.394 6.097,-1.394 3.332,0 6.051,0.468 8.153,1.394 2.097,0.93 3.949,2.805 5.55,5.606 h 0.2 c 0.203,-0.938 0.41,-1.883 0.648,-2.852 0.231,-0.976 0.582,-1.883 1.051,-2.754 h 13.199 c -0.668,1.602 -1.117,3.106 -1.348,4.5 -0.238,1.399 -0.351,3.371 -0.351,5.903 v 28.3 c 0,2.403 -0.25,4.618 -0.75,6.649 -0.5,2.031 -1.445,3.777 -2.848,5.254 -1.402,1.465 -3.39,2.597 -5.953,3.398 -2.566,0.801 -5.89,1.199 -9.949,1.199 -2.602,0 -5.051,-0.281 -7.352,-0.847 -2.297,-0.574 -4.297,-1.504 -6,-2.801 -1.699,-1.301 -3.047,-3.02 -4.047,-5.148 -1,-2.137 -1.5,-4.739 -1.5,-7.801 v -1.301 z m 12.801,-21.008 c 0,-1.519 -0.274,-2.808 -0.801,-3.844 -0.539,-1.027 -1.219,-1.875 -2.051,-2.55 -0.84,-0.672 -1.746,-1.153 -2.75,-1.454 -1,-0.292 -1.973,-0.453 -2.898,-0.453 -1.871,0 -3.2,0.735 -4,2.207 -0.801,1.465 -1.2,3.227 -1.2,5.293 0,2.407 0.598,4.309 1.801,5.707 1.196,1.395 3.199,2.403 5.996,2.996 0.864,0.208 1.832,0.528 2.903,0.958 1.058,0.429 2.058,1.015 3,1.75 z m 23.258,-33.894 h 13.804 v 22.597 h 0.199 c 1.461,-2.129 3.106,-3.73 4.946,-4.797 1.832,-1.074 4.054,-1.597 6.652,-1.597 5.656,0 9.828,2.215 12.5,6.648 2.66,4.426 3.996,11.653 3.996,21.653 0,10 -1.336,17.214 -3.996,21.648 -2.672,4.426 -6.844,6.648 -12.5,6.648 -2.801,0 -5.148,-0.554 -7.051,-1.648 -1.898,-1.102 -3.621,-2.922 -5.148,-5.449 h -0.199 v 5.691 h -13.203 z m 15.152,57.754 c 0.898,2.968 2.879,4.445 5.953,4.445 2.996,0 4.945,-1.477 5.848,-4.445 0.898,-2.977 1.347,-7.383 1.347,-13.25 0,-5.872 -0.449,-10.286 -1.347,-13.254 -0.903,-2.969 -2.852,-4.454 -5.848,-4.454 -3.074,0 -5.055,1.485 -5.953,4.454 -0.899,2.968 -1.348,7.382 -1.348,13.254 0,5.867 0.449,10.273 1.348,13.25 m 35.44,-40.157 h 13.8 v 35.703 c 0,5.926 2.43,8.899 7.3,8.899 2.06,0 3.56,-0.547 4.5,-1.653 0.93,-1.093 1.4,-3.046 1.4,-5.847 v -37.102 h 13.8 v 39.903 c 0,5.402 -1.19,9.296 -3.55,11.699 -2.37,2.402 -5.75,3.601 -10.15,3.601 -6.07,0 -10.44,-2.3 -13.1,-6.902 h -0.2 v 23.106 h -13.8 z m 50.81,60.403 h 13.8 v 11.796 h -13.8 z m 0,-60.403 h 13.8 v 53.797 h -13.8 z m 21.92,17.598 v -1.895 c 0,-2.597 0.3,-4.953 0.9,-7.05 0.6,-2.098 1.65,-3.899 3.15,-5.403 1.5,-1.504 3.51,-2.644 6.05,-3.445 2.53,-0.801 5.76,-1.199 9.7,-1.199 2.86,0 5.53,0.347 8,1.043 2.46,0.703 4.58,1.758 6.35,3.156 1.76,1.394 3.15,3.172 4.15,5.301 1,2.129 1.5,4.597 1.5,7.39 0,4.075 -0.9,7.289 -2.7,9.661 -1.8,2.363 -4.87,4.277 -9.2,5.742 l -8.3,2.804 c -2.34,0.731 -3.92,1.629 -4.75,2.704 -0.84,1.066 -1.25,2.265 -1.25,3.593 0,1.934 0.65,3.379 1.95,4.356 1.3,0.968 2.81,1.445 4.55,1.445 2.26,0 3.85,-0.644 4.75,-1.953 0.9,-1.301 1.35,-3.352 1.35,-6.145 h 12.4 v 2.2 c 0,4.875 -1.5,8.632 -4.5,11.3 -3,2.664 -7.64,4 -13.9,4 -3.54,0 -6.55,-0.425 -9.05,-1.296 -2.5,-0.879 -4.55,-2.032 -6.15,-3.504 -1.6,-1.465 -2.77,-3.176 -3.5,-5.149 -0.74,-1.972 -1.1,-4.051 -1.1,-6.25 0,-3.801 0.96,-6.926 2.9,-9.355 1.93,-2.422 4.8,-4.317 8.6,-5.645 l 9.7,-3.508 c 1.33,-0.523 2.5,-1.25 3.5,-2.144 1,-0.899 1.5,-2.219 1.5,-3.945 0,-2.129 -0.64,-3.735 -1.9,-4.805 -1.27,-1.067 -2.97,-1.606 -5.1,-1.606 -2.34,0 -4.12,0.727 -5.35,2.161 -1.24,1.425 -1.85,3.32 -1.85,5.644 v 1.797 z m 86.71,16.809 c 0,6.394 -1.61,11.464 -4.85,15.195 -3.23,3.726 -8.05,5.601 -14.45,5.601 -3.2,0 -6.13,-0.425 -8.8,-1.296 -2.66,-0.879 -4.96,-2.383 -6.9,-4.551 -1.93,-2.176 -3.43,-5.078 -4.5,-8.699 -1.06,-3.633 -1.6,-8.223 -1.6,-13.75 0,-5.403 0.44,-9.922 1.3,-13.555 0.87,-3.625 2.15,-6.524 3.85,-8.703 1.7,-2.168 3.84,-3.719 6.4,-4.649 2.57,-0.926 5.59,-1.394 9.05,-1.394 7.34,0 12.59,1.89 15.75,5.691 3.17,3.809 4.75,9.238 4.75,16.309 h -13.2 c 0,-4.403 -0.53,-7.61 -1.6,-9.602 -1.06,-2 -2.76,-3.008 -5.1,-3.008 -1.53,0 -2.78,0.356 -3.75,1.059 -0.96,0.699 -1.71,1.816 -2.25,3.348 -0.53,1.535 -0.9,3.476 -1.1,5.847 -0.2,2.375 -0.3,5.227 -0.3,8.547 0,3.074 0.1,5.774 0.3,8.106 0.2,2.336 0.57,4.25 1.1,5.754 0.54,1.492 1.32,2.625 2.35,3.398 1.04,0.769 2.42,1.148 4.15,1.148 1.27,0 2.32,-0.32 3.15,-0.957 0.84,-0.625 1.47,-1.461 1.9,-2.5 0.44,-1.023 0.74,-2.195 0.9,-3.496 0.17,-1.297 0.25,-2.578 0.25,-3.843 z m 7.9,-34.407 h 13.8 v 35.703 c 0,5.926 2.44,8.899 7.3,8.899 2.07,0 3.57,-0.547 4.5,-1.653 0.94,-1.093 1.4,-3.046 1.4,-5.847 v -37.102 h 13.8 v 39.903 c 0,5.402 -1.18,9.296 -3.55,11.699 -2.36,2.402 -5.75,3.601 -10.15,3.601 -6.06,0 -10.43,-2.3 -13.1,-6.902 h -0.2 v 23.106 h -13.8 z m 89.97,24.805 v 3.098 c 0,4.129 -0.26,7.879 -0.8,11.25 -0.53,3.367 -1.53,6.226 -3,8.601 -1.46,2.363 -3.48,4.199 -6.05,5.496 -2.56,1.301 -5.85,1.953 -9.85,1.953 -4.66,0 -8.4,-0.769 -11.2,-2.3 -2.8,-1.536 -4.95,-3.606 -6.45,-6.204 -1.5,-2.597 -2.5,-5.566 -3,-8.894 -0.5,-3.332 -0.75,-6.801 -0.75,-10.402 0,-3.329 0.15,-6.719 0.45,-10.149 0.3,-3.433 1.12,-6.531 2.45,-9.305 1.34,-2.761 3.4,-5.019 6.2,-6.746 2.8,-1.73 6.7,-2.597 11.7,-2.597 6.6,0 11.44,1.679 14.5,5.047 3.07,3.371 4.74,8.183 5,14.453 h -12.4 c -0.4,-3.407 -1.13,-5.938 -2.2,-7.61 -1.06,-1.668 -2.76,-2.5 -5.1,-2.5 -1.26,0 -2.33,0.356 -3.2,1.059 -0.86,0.699 -1.56,1.629 -2.1,2.801 -0.53,1.164 -0.91,2.5 -1.15,3.996 -0.23,1.504 -0.35,3.055 -0.35,4.644 v 4.309 z m -27.3,8.191 v 2.102 c 0,1.269 0.12,2.527 0.35,3.809 0.24,1.269 0.62,2.414 1.15,3.449 0.54,1.023 1.25,1.863 2.15,2.5 0.9,0.625 2.05,0.945 3.45,0.945 1.4,0 2.55,-0.281 3.45,-0.848 0.9,-0.57 1.6,-1.398 2.1,-2.5 0.5,-1.105 0.85,-2.433 1.05,-4.004 0.2,-1.566 0.34,-3.378 0.4,-5.453 z m 33.08,-15.398 v -1.895 c 0,-2.597 0.3,-4.953 0.9,-7.05 0.6,-2.098 1.65,-3.899 3.15,-5.403 1.5,-1.504 3.52,-2.644 6.05,-3.445 2.54,-0.801 5.77,-1.199 9.7,-1.199 2.87,0 5.54,0.347 8,1.043 2.47,0.703 4.59,1.758 6.35,3.156 1.77,1.394 3.15,3.172 4.15,5.301 1,2.129 1.5,4.597 1.5,7.39 0,4.075 -0.9,7.289 -2.7,9.661 -1.8,2.363 -4.86,4.277 -9.2,5.742 l -8.3,2.804 c -2.33,0.731 -3.91,1.629 -4.75,2.704 -0.83,1.066 -1.25,2.265 -1.25,3.593 0,1.934 0.65,3.379 1.95,4.356 1.3,0.968 2.82,1.445 4.55,1.445 2.27,0 3.85,-0.644 4.75,-1.953 0.9,-1.301 1.35,-3.352 1.35,-6.145 h 12.4 v 2.2 c 0,4.875 -1.5,8.632 -4.5,11.3 -3,2.664 -7.63,4 -13.9,4 -3.53,0 -6.55,-0.425 -9.05,-1.296 -2.5,-0.879 -4.55,-2.032 -6.15,-3.504 -1.6,-1.465 -2.76,-3.176 -3.5,-5.149 -0.73,-1.972 -1.1,-4.051 -1.1,-6.25 0,-3.801 0.97,-6.926 2.9,-9.355 1.94,-2.422 4.8,-4.317 8.6,-5.645 l 9.7,-3.508 c 1.34,-0.523 2.5,-1.25 3.5,-2.144 1,-0.899 1.5,-2.219 1.5,-3.945 0,-2.129 -0.63,-3.735 -1.9,-4.805 -1.26,-1.067 -2.96,-1.606 -5.1,-1.606 -2.33,0 -4.11,0.727 -5.35,2.161 -1.23,1.425 -1.85,3.32 -1.85,5.644 v 1.797 h -12.4" style="fill:#2f56ae;fill-opacity:1;fill-rule:nonzero;stroke:none" transform="matrix(.13333 0 0 -.13333 0 120.947)"/><path d="m 595.281,631.73 v 48.586 h -47.945 c 14.519,-10.199 31.125,-26.007 47.945,-48.586 m -356,48.586 H 141.742 V 559.457 c 4.961,15.262 10.199,29.504 13.942,37.75 7.48,16.43 7.48,16.43 31.382,43.32 16.125,14.129 33.516,27.641 52.215,39.789 M 141.742,373.223 V 226.77 h 453.539 v 63.093 c -16.187,-16.758 -36.582,-32.48 -62.886,-44.98 0,0 22.957,13.32 33.218,27.258 0,0 -91.437,-23.977 -126.703,-13.938 0,0 97.363,2.863 156.371,52.883 v 44.004 c -7.609,-3.137 -16,-5.86 -25.371,-7.5 0,0 -7.574,-20.09 -19.265,-26.445 0,0 8.41,12.5 11.269,23.789 0,0 -110.504,-15.188 -196.812,22.742 0,0 115.011,-30.125 202.347,-6.77 0,0 1.442,67.453 0,85.102 0,0 -48.586,-3.086 -71.965,-0.223 0,0 -12.089,-31.976 -13.941,-75.031 0,0 -2.652,34.851 2.871,77.094 0,0 -31.488,7.078 -72.164,20.492 0,0 -18.445,-33.621 -32.176,-71.746 0,0 10.867,53.504 21.309,77.082 0,0 -51.863,21.105 -74.41,36.082 0,0 -13.121,-14.758 -31.567,-51.461 0,0 13.727,38.738 23.379,58.633 l -10.25,5.527 c 0,0 9.02,-0.82 14.125,-1.019 0,0 26.86,56.371 57.613,86.722 -10.039,7.785 -30.351,27.137 -30.351,27.137 -7.481,-5.981 -47.063,-32.07 -79.192,-70.227 0,0 11.204,-17.183 23.161,-31.375 0,0 -18.676,10.184 -28.387,20.914 0,0 -34.621,-36.257 -56.777,-85.113 0,0 13.445,-18.73 29.132,-31.422 -17.175,5.231 -26.144,8.227 -37.347,24.656 0,0 -2.996,8.208 -20.918,-33.621 0,0 2.238,25.407 13.449,40.387 0,0 -41.09,41.793 -42.59,82.871 -2.328,-3.5 -5.598,-10.457 -8.711,-19.226 v -96.129 c 4.504,-10.828 12.16,-25.535 25.899,-44.512 0,0 -12.598,8.613 -25.899,26.289 v -33.43 c 1.93,-8.472 4.813,-17.351 9.457,-25.718 -3.597,3.601 -6.707,8.3 -9.457,13.582 m 387.442,304.105 c 3.468,-4.863 3.007,-12.75 3.007,-12.75 20.372,-4.871 62.911,-74.851 63.09,-75.14 v 24.402 c -22.699,37.945 -66.097,63.488 -66.097,63.488 m -34.34,-26.211 c 9.511,-18.097 13.679,-79.121 13.679,-79.121 9.508,-0.918 28.309,0 28.309,0 -0.23,19.266 -32.019,77.176 -32.019,77.176 -3.708,-1.766 -9.969,1.945 -9.969,1.945 m 69.359,-193.269 c 2.551,34.8 -22.039,102.793 -22.039,102.793 -3.703,-0.703 -33.18,1.144 -33.18,1.144 7.426,-29.465 -12.058,-103.937 -12.058,-103.937 20.879,-4.868 67.277,0 67.277,0 m -11.371,113.73 c 19.731,-0.051 32.719,11.789 32.719,11.789 -16.317,32.563 -53.36,73.789 -53.36,73.789 -3.711,-3.031 -15.304,-6.039 -15.304,-6.039 32.246,-53.597 35.945,-79.539 35.945,-79.539 m 4.41,-10.937 c 16.828,-52.461 21.121,-98.625 21.121,-98.625 6.039,0.273 11.598,1.679 16.918,3.511 v 95.68 c -3.777,7.324 -6.476,11.734 -6.476,11.734 -7.196,-7.433 -31.563,-12.3 -31.563,-12.3 m 20.664,-196.508 c 5.192,0.847 11.203,3.269 17.375,6.289 v 81.859 c -9.136,-3.394 -15.539,-4.633 -15.539,-4.633 3.262,-18.789 -1.836,-83.515 -1.836,-83.515 m -57.453,316.183 h -74.219 c 4.852,-4.3 13.579,-9.066 28.141,-14.148 50.813,-17.699 52.359,-2.207 46.078,14.148 M 237.781,669.68 c -2.554,-9.992 -2.886,-20.508 -2.886,-20.508 15.941,13.703 41.953,24.566 60.457,31.144 H 254.254 C 243.727,674.379 237.781,669.68 237.781,669.68 m 102.321,-24.602 c -9.981,6.731 -20.649,29.703 -20.649,29.703 -42.004,-9.273 -84.457,-41.414 -84.457,-41.414 -2.09,-35.617 27.848,-59.289 27.848,-59.289 17.172,28.996 77.258,71 77.258,71 m 13.519,4.094 c 16.102,18.207 60.66,28.625 72.613,31.144 h -94.48 c 2.211,-13.91 21.867,-31.144 21.867,-31.144 m 39.371,-28.504 c 12.492,27.273 48.781,47.77 48.781,47.77 -5.527,2.46 -6.96,6.343 -6.96,6.343 -42.231,-4.914 -71.352,-32.383 -71.352,-32.383 7.375,-12.101 29.531,-21.73 29.531,-21.73 m 11.613,-137.992 c 13.911,25.293 37.168,96.754 37.168,96.754 -10.5,1.156 -48.332,21.797 -48.332,21.797 -20.859,-12.289 -63.089,-84.442 -63.089,-84.442 15.132,-11.84 74.253,-34.109 74.253,-34.109 m 88.719,80.961 c -11.933,2.109 -38.164,12.09 -38.164,12.09 -10.199,-27.387 -40.828,-99.551 -40.828,-99.551 28.309,-11.356 74.023,-18.328 74.023,-18.328 7.645,29.461 4.969,105.789 4.969,105.789 m -45.808,27.511 c 3.285,24.188 16.605,63.961 16.605,63.961 -7.168,0.207 -14.547,6.969 -14.547,6.969 -26.449,-18.859 -46.953,-50.441 -46.953,-50.441 11.27,-10.653 44.895,-20.489 44.895,-20.489 m 25.047,62.29 c -3.243,-10.911 -15.782,-67.29 -15.782,-67.29 11.145,-6.019 36.434,-10.421 36.434,-10.421 0.941,30.461 -4.652,74.921 -4.652,74.921 -5.559,-0.921 -16,2.79 -16,2.79 M 219.684,626.605 c -18.332,-4.714 -28.762,-15.257 -28.762,-15.257 6.719,15.398 26.652,28.187 26.652,28.187 1.25,11.582 4.207,19.711 4.207,19.711 -26.918,-16.238 -58.008,-62.648 -57.078,-98.617 0.934,-35.961 37.117,-72.84 37.117,-72.84 9.055,22.969 53.121,75.848 53.121,75.848 -22.5,15.332 -35.257,62.968 -35.257,62.968" style="fill:#2f56ae;fill-opacity:1;fill-rule:nonzero;stroke:none" transform="matrix(.13333 0 0 -.13333 0 120.947)"/><path d="m 141.738,373.223 c 2.754,-5.282 5.864,-9.981 9.461,-13.582 -4.652,8.355 -7.527,17.254 -9.461,25.718 z m 25.903,19.277 c -13.739,18.977 -21.403,33.684 -25.903,44.504 V 418.777 C 155.039,401.121 167.641,392.5 167.641,392.5 M 595.277,289.871 v 21.215 c -59.007,-50.02 -156.355,-52.883 -156.355,-52.883 35.25,-10.039 126.687,13.938 126.687,13.938 -10.257,-13.938 -33.214,-27.27 -33.214,-27.27 26.304,12.512 46.707,28.234 62.882,45 m 0,341.863 c -16.816,22.579 -33.425,38.379 -47.949,48.579 h -26.879 c 6.281,-16.364 4.731,-31.84 -46.078,-14.141 -14.562,5.078 -23.293,9.848 -28.141,14.141 h -20 c -11.949,-2.52 -56.507,-12.93 -72.613,-31.153 0,0 -19.656,17.25 -21.871,31.153 h -36.387 c -18.519,-6.575 -44.531,-17.43 -60.464,-31.153 0,0 0.335,10.531 2.882,20.512 0,0 5.946,4.699 16.469,10.641 h -14.965 c -18.699,-12.149 -36.093,-25.649 -52.211,-39.79 -23.91,-26.878 -23.91,-26.878 -31.382,-43.32 -3.75,-8.242 -8.989,-22.48 -13.95,-37.738 v -26.324 c 3.121,8.761 6.383,15.722 8.723,19.23 1.488,-41.086 42.582,-82.879 42.582,-82.879 -11.211,-14.98 -13.453,-40.383 -13.453,-40.383 17.93,41.825 20.918,33.625 20.918,33.625 11.211,-16.441 20.172,-19.433 37.351,-24.66 -15.675,12.688 -29.129,31.418 -29.129,31.418 22.161,48.848 56.766,85.121 56.766,85.121 9.723,-10.73 28.395,-20.914 28.395,-20.914 -11.961,14.192 -23.161,31.375 -23.161,31.375 32.129,38.16 71.711,64.239 79.192,70.231 0,0 20.308,-19.352 30.355,-27.141 C 349.52,577.813 322.66,521.43 322.66,521.43 c -5.109,0.203 -14.129,1.031 -14.129,1.031 l 10.246,-5.527 c -9.644,-19.903 -23.379,-58.645 -23.379,-58.645 18.454,36.711 31.575,51.473 31.575,51.473 22.547,-14.981 74.418,-36.09 74.418,-36.09 -10.45,-23.578 -21.313,-77.078 -21.313,-77.078 13.723,38.125 32.184,71.734 32.184,71.734 40.66,-13.394 72.156,-20.476 72.156,-20.476 -5.527,-42.239 -2.879,-77.098 -2.879,-77.098 1.852,43.047 13.949,75.035 13.949,75.035 23.383,-2.867 71.961,0.211 71.961,0.211 1.442,-17.641 0,-85.094 0,-85.094 -87.336,-23.367 -202.336,6.782 -202.336,6.782 86.309,-37.93 196.805,-22.766 196.805,-22.766 -2.871,-11.277 -11.27,-23.777 -11.27,-23.777 11.68,6.343 19.262,26.445 19.262,26.445 9.383,1.629 17.762,4.375 25.367,7.5 v 15.332 c -6.168,-3.02 -12.187,-5.449 -17.379,-6.301 0,0 5.11,64.738 1.852,83.531 0,0 6.402,1.239 15.527,4.629 v 13.242 c -5.316,-1.824 -10.879,-3.242 -16.918,-3.5 0,0 -4.289,46.153 -21.109,98.618 0,0 24.359,4.871 31.559,12.289 0,0 2.699,-4.399 6.468,-11.731 v 28.235 c -0.164,0.289 -42.718,70.277 -63.086,75.136 0,0 0.461,7.891 -3.011,12.766 0,0 43.41,-25.543 66.097,-63.504 z M 190.918,611.352 c 0,0 10.445,10.527 28.766,15.257 0,0 12.765,-47.648 35.265,-62.964 0,0 -44.082,-52.883 -53.129,-75.864 0,0 -36.191,36.891 -37.117,72.84 -0.933,35.981 30.156,82.391 57.078,98.621 0,0 -2.965,-8.121 -4.203,-19.703 0,0 -19.937,-12.785 -26.66,-28.187 m 149.184,33.73 c 0,0 -60.09,-42 -77.258,-71 0,0 -29.934,23.66 -27.844,59.293 0,0 42.449,32.129 84.449,41.406 0,0 10.672,-22.968 20.653,-29.699 M 496.918,457.844 c 0,0 19.504,74.48 12.062,103.937 0,0 29.481,-1.84 33.176,-1.14 0,0 24.602,-67.989 22.055,-102.797 0,0 -46.398,-4.86 -67.293,0 M 393.453,601.23 c 0,0 37.817,-20.648 48.32,-21.804 0,0 -23.261,-71.461 -37.171,-96.746 0,0 -59.122,22.261 -74.25,34.113 0,0 42.226,72.148 63.101,84.437 m 48.32,67.204 c 0,0 -36.285,-20.504 -48.785,-47.758 0,0 -22.148,9.629 -29.527,21.726 0,0 29.117,27.469 71.348,32.379 0,0 1.429,-3.886 6.964,-6.347 m 22.348,-13.321 c 0,0 -13.308,-39.769 -16.601,-63.968 0,0 -33.629,9.835 -44.899,20.496 0,0 20.508,31.574 46.949,50.429 0,0 7.387,-6.75 14.551,-6.957 m 29.086,-79.39 c 0,0 -25.277,4.398 -36.426,10.422 0,0 12.539,56.39 15.778,67.296 0,0 10.437,-3.718 16,-2.789 0,0 5.589,-44.461 4.648,-74.929 m -4.855,-117.879 c 0,0 -45.711,6.98 -74.02,18.34 0,0 30.629,72.144 40.84,99.539 0,0 26.219,-9.981 38.148,-12.078 0,0 2.68,-76.329 -4.968,-105.801 m 48.48,114.16 c 0,0 -18.789,-0.93 -28.301,0 0,0 -4.179,61.019 -13.691,79.117 0,0 6.258,-3.711 9.98,-1.961 0,0 31.782,-57.91 32.012,-77.156 m -4.641,85.148 c 0,0 37.039,-41.23 53.36,-73.789 0,0 -12.992,-11.832 -32.707,-11.781 0,0 -3.711,25.941 -35.965,79.539 0,0 11.601,3.012 15.312,6.031" style="fill:#fff;fill-opacity:1;fill-rule:nonzero;stroke:none" transform="matrix(.13333 0 0 -.13333 0 120.947)"/></svg>